<?xml version="1.0" encoding="iso-8859-1"?>
<!-- Generator: Adobe Illustrator 22.0.1, SVG Export Plug-In . SVG Version: 6.00 Build 0)  -->
<svg version="1.1" xmlns="http://www.w3.org/2000/svg" xmlns:xlink="http://www.w3.org/1999/xlink" x="0px" y="0px"
	 viewBox="0 0 128 128" style="enable-background:new 0 0 128 128;" xml:space="preserve">
<g id="_x38_">
	<path style="fill:#F98878;" d="M92.454,68.445v46.365l-10.465,2.554V71.231l-30.714,8.205v47.016l67.481-16.456V61.416
		L92.454,68.445z M92.454,44.728v23.531l26.302-7.137v0.294l4.056-1.084l0.016-23.283L92.454,44.728z M51.275,79.436l30.714-8.329
		V47.375l-30.714,7.756V79.436z M31.413,68.77v46.133l-9.103-4.644V63.708L9.012,56.323v48.873l41.582,21.255V79.436L31.413,68.77z
		 M5.173,30.826v23.283l17.137,9.552v-23.67L5.173,30.826z M31.413,44.867v23.872l19.181,10.697V55.131L31.413,44.867z
		 M92.113,44.155l30.714-7.106l-16.456-9.645L33.116,44.681l16.348,9.335l32.309-7.477l-13.623-8.251l10.341-2.4L92.113,44.155z
		 M47.745,29.541l-28.175,7.23h-0.015L9.523,31.399L39.2,24.355L47.745,29.541z"/>
	<path style="fill:#231F20;" d="M88.537,1.35c-3.483-1.842-7.013-1.796-10.233,0.139c-0.449,0.263-0.882,0.573-1.3,0.913
		c-3.344,2.601-6.022,7.028-8.066,11.704l-7.075,1.672C59.665,10.453,56.678,5.205,52.9,2.341c-0.387-0.31-0.774-0.573-1.177-0.821
		c-3.251-1.966-6.827-2.028-10.326-0.17c-3.53,1.858-4.304,4.366-4.335,6.131c-0.062,3.839,3.359,8.236,7.802,12.338
		c0.217,0.201,0.433,0.403,0.666,0.604c0.712,0.635,1.455,1.285,2.214,1.904c2.369,1.951,4.861,3.777,7.168,5.372
		c1.207,0.836,2.384,1.61,3.452,2.307c2.431,1.579,4.397,2.74,5.387,3.313c0.186,0.108,0.341,0.201,0.449,0.263l0.944,0.542
		l0.929-0.542c0.108-0.062,0.263-0.155,0.449-0.263c1.92-1.115,7.508-4.49,13.066-8.762c0.139-0.108,0.279-0.217,0.418-0.325
		c1.734-1.347,3.468-2.787,5.078-4.273c0.573-0.526,1.13-1.068,1.656-1.61c0.774-0.774,1.502-1.564,2.167-2.353
		c2.446-2.91,4.041-5.836,3.994-8.484C92.872,5.731,92.082,3.208,88.537,1.35z M62.483,28.953c-1.146-0.712-2.353-1.471-3.561-2.276
		c-2.446-1.641-4.969-3.421-7.322-5.263c-0.867-0.681-1.703-1.362-2.523-2.059h-0.015c-0.17-0.139-0.325-0.279-0.495-0.418
		c-4.845-4.18-8.453-8.375-8.406-11.394c0.015-0.511,0.046-2.059,2.694-3.468c1.254-0.65,2.462-0.991,3.638-0.991
		c1.238,0,2.431,0.372,3.622,1.084c3.607,2.167,6.533,7.152,8.716,12.338c0.418,0.975,0.79,1.951,1.146,2.91
		c0.263,0.697,0.495,1.378,0.712,2.059h0.015c0.232,0.712,0.464,1.424,0.681,2.105c0.604,1.997,1.084,3.824,1.424,5.279
		c0.031,0.108,0.046,0.232,0.077,0.341C62.746,29.123,62.622,29.03,62.483,28.953z M65.362,24.308l-0.65-0.403h-0.015
		c-0.464-1.625-1.022-3.39-1.687-5.202l4.505-1.068C66.647,19.958,65.935,22.249,65.362,24.308z M86.2,14.462
		c-0.681,0.759-1.424,1.533-2.229,2.307c-1.749,1.672-3.746,3.359-5.821,4.969c-1.966,1.517-3.994,2.972-5.929,4.304
		c-0.341,0.217-0.681,0.449-1.022,0.666c-1.362,0.913-2.647,1.749-3.824,2.477c0.108-0.48,0.232-1.006,0.372-1.579
		c0.046-0.186,0.093-0.372,0.139-0.573c0.217-0.882,0.48-1.842,0.774-2.864c0.681-2.307,1.533-4.876,2.57-7.415
		c0.48-1.208,1.022-2.415,1.579-3.576c1.935-3.917,4.304-7.353,7.09-9.025c1.176-0.712,2.353-1.068,3.561-1.068
		c1.177,0,2.384,0.341,3.638,0.991c2.663,1.409,2.694,2.988,2.709,3.499C89.838,9.57,88.413,11.97,86.2,14.462z M92.392,17.977
		c-0.077,0.077-0.155,0.139-0.232,0.217c-0.728,0.619-1.486,1.254-2.291,1.904c-1.068,0.867-2.214,1.749-3.421,2.647
		c-0.046,0.031-0.077,0.046-0.124,0.093l2.214-0.573l3.514-0.913l0.124,0.062l10.171,5.79l-70.934,16.41v71.29l-9.103-4.644V39.263
		l33.145-8.515c-1.889-1.146-11.409-7.555-11.409-7.555c-0.743-0.542-1.486-1.099-2.214-1.656c-0.325-0.263-0.65-0.511-0.975-0.774
		L3.624,29.789v25.234l3.839,2.136v48.982L50.222,128l70.082-16.781v-48.61l4.071-1.084V35.068L92.392,17.977z M19.214,108.68
		l-8.654-4.428V58.893l8.654,4.815V108.68z M19.214,60.162L6.721,53.196V33.411l12.493,6.688V60.162z M19.554,36.771L9.523,31.399
		L39.2,24.355l8.545,5.186l-28.175,7.23H19.554z M49.045,123.913l-14.536-7.431V72.237l14.536,8.097V123.913z M49.045,76.789
		l-14.536-8.097V48.273l14.536,7.787V76.789z M36.212,45.672l27.618-6.378l12.88,7.802l-25.698,6.502L36.212,45.672z
		 M78.893,118.123l-26.751,6.518V80.799l26.751-7.137V118.123z M78.893,70.457l-26.751,7.137V56.509l26.751-6.765V70.457z
		 M92.454,114.81l-10.465,2.554V46.678l-0.217-0.139l-13.623-8.251l10.341-2.4l13.623,8.267l0.341,0.201V114.81z M82.809,34.897
		l23.515-5.434l13.174,6.827l-24.29,6.146L82.809,34.897z M117.208,108.788l-21.658,5.279V69.219l21.658-5.79V108.788z
		 M121.279,59.141L95.55,66.014V45.533l25.729-6.487V59.141z"/>
</g>
<g id="Layer_1">
</g>
</svg>
